<svg width="937" height="32" viewBox="0 0 937 32" fill="none" xmlns="http://www.w3.org/2000/svg">
<g clip-path="url(#clip0_4264_25238)">
<path d="M584.198 31.5947H551.958L528.672 0.405273H560.912L584.198 31.5947Z" stroke="#373942" stroke-miterlimit="10"/>
<path d="M642.855 31.5947H610.597L587.33 0.405273H619.569L642.855 31.5947Z" stroke="#373942" stroke-miterlimit="10"/>
<path d="M701.513 31.5947H669.255L645.969 0.405273H678.227L701.513 31.5947Z" stroke="#373942" stroke-miterlimit="10"/>
<path d="M525.559 31.5947H493.301L470.015 0.405273H502.273L525.559 31.5947Z" stroke="#373942" stroke-miterlimit="10"/>
<path d="M818.809 31.5947H786.551L763.265 0.405273H795.523L818.809 31.5947Z" stroke="#373942" stroke-miterlimit="10"/>
<path d="M877.448 31.5947H845.209L821.923 0.405273H854.181L877.448 31.5947Z" stroke="#373942" stroke-miterlimit="10"/>
<path d="M936.106 31.5947H903.848L880.58 0.405273H912.82L936.106 31.5947Z" stroke="#373942" stroke-miterlimit="10"/>
<path d="M760.152 31.5947H727.913L704.626 0.405273H736.866L760.152 31.5947Z" stroke="#373942" stroke-miterlimit="10"/>
<path d="M114.994 31.5947H82.7544L59.4683 0.405273H91.7262L114.994 31.5947Z" stroke="#373942" stroke-miterlimit="10"/>
<path d="M173.651 31.5947H141.412L118.125 0.405273H150.365L173.651 31.5947Z" stroke="#373942" stroke-miterlimit="10"/>
<path d="M232.309 31.5947H200.051L176.765 0.405273H209.023L232.309 31.5947Z" stroke="#373942" stroke-miterlimit="10"/>
<path d="M56.3546 31.5947H24.0967L0.810547 0.405273H33.0685L56.3546 31.5947Z" stroke="#373942" stroke-miterlimit="10"/>
<path d="M349.605 31.5947H317.347L294.08 0.405273H326.319L349.605 31.5947Z" stroke="#373942" stroke-miterlimit="10"/>
<path d="M408.244 31.5947H376.004L352.718 0.405273H384.976L408.244 31.5947Z" stroke="#373942" stroke-miterlimit="10"/>
<path d="M466.902 31.5947H434.662L411.376 0.405273H443.615L466.902 31.5947Z" stroke="#373942" stroke-miterlimit="10"/>
<path d="M290.947 31.5947H258.708L235.422 0.405273H267.661L290.947 31.5947Z" stroke="#373942" stroke-miterlimit="10"/>
</g>
<defs>
<clipPath id="clip0_4264_25238">
<rect width="936.917" height="32" fill="white"/>
</clipPath>
</defs>
</svg>
